<svg xmlns="http://www.w3.org/2000/svg" viewBox="0 0 400 400" width="400" height="400" preserveAspectRatio="xMidYMid meet" style="width: 100%; height: 100%; transform: translate3d(0px, 0px, 0px); content-visibility: visible;"><defs><clipPath id="__lottie_element_2"><rect width="400" height="400" x="0" y="0"></rect></clipPath></defs><g clip-path="url(#__lottie_element_2)"><g transform="matrix(1,0,0,1,39.912994384765625,226.010009765625)" opacity="0.1" style="display: block;"><g opacity="1" transform="matrix(1,0,0,1,149.4340057373047,159.95700073242188)"><path fill="rgb(0,0,0)" fill-opacity="1" d=" M-149.4340057373047,-2.7809998989105225 C-149.4340057373047,-2.7809998989105225 8.097999572753906,-14.032999992370605 8.097999572753906,-14.032999992370605 C8.097999572753906,-14.032999992370605 149.4340057373047,-0.2800000011920929 149.4340057373047,-0.2800000011920929 C149.4340057373047,-0.2800000011920929 -2.7869999408721924,14.031999588012695 -2.7869999408721924,14.031999588012695 C-2.7869999408721924,14.031999588012695 -149.4340057373047,-2.7809998989105225 -149.4340057373047,-2.7809998989105225z"></path></g></g><g transform="matrix(1,0,0,1,70.33000183105469,314.0039978027344)" opacity="1" style="display: block;"><g opacity="1" transform="matrix(1,0,0,1,62.24399948120117,33.04399871826172)"><path fill="rgb(120,93,135)" fill-opacity="1" d=" M27.777999877929688,-29.097999572753906 C27.777999877929688,-29.097999572753906 13.855999946594238,-6.709000110626221 13.855999946594238,-6.709000110626221 C13.855999946594238,-6.709000110626221 13.430999755859375,5.750999927520752 13.430999755859375,5.750999927520752 C13.430999755859375,5.750999927520752 10.74899959564209,12.267000198364258 10.74899959564209,12.267000198364258 C10.74899959564209,12.267000198364258 1.2139999866485596,22.5310001373291 1.2139999866485596,22.5310001373291 C1.2139999866485596,22.5310001373291 -15.835000038146973,32.79399871826172 -15.835000038146973,32.79399871826172 C-15.835000038146973,32.79399871826172 -27.777999877929688,19.680999755859375 -27.777999877929688,19.680999755859375 C-27.777999877929688,19.680999755859375 -20.256999969482422,-6.709000110626221 -20.256999969482422,-6.709000110626221 C-20.256999969482422,-6.709000110626221 -3.6700000762939453,-38.847999572753906 -3.6700000762939453,-38.847999572753906 C-3.6700000762939453,-38.847999572753906 5.269999980926514,-42.29399871826172 5.269999980926514,-42.29399871826172 C5.269999980926514,-42.29399871826172 27.777999877929688,-29.097999572753906 27.777999877929688,-29.097999572753906z"></path></g><g opacity="1" transform="matrix(1,0,0,1,69.33100128173828,55.57500076293945)"><path fill="rgb(88,65,100)" fill-opacity="1" d=" M3.6630001068115234,-10.263999938964844 C3.6630001068115234,-10.263999938964844 22.92099952697754,10.263999938964844 22.92099952697754,10.263999938964844 C22.92099952697754,10.263999938964844 -22.92099952697754,10.263999938964844 -22.92099952697754,10.263999938964844 C-22.92099952697754,10.263999938964844 3.6630001068115234,-10.263999938964844 3.6630001068115234,-10.263999938964844z"></path></g><g opacity="1" transform="matrix(1,0,0,1,68.21499633789062,21.3700008392334)"><path fill="rgb(88,65,100)" fill-opacity="1" d=" M-21.80699920654297,4.078999996185303 C-21.80699920654297,4.078999996185303 7.460999965667725,17.423999786376953 7.460999965667725,17.423999786376953 C7.460999965667725,17.423999786376953 21.80699920654297,-17.423999786376953 21.80699920654297,-17.423999786376953 C21.80699920654297,-17.423999786376953 -12.392000198364258,-17.423999786376953 -12.392000198364258,-17.423999786376953 C-12.392000198364258,-17.423999786376953 -21.80699920654297,4.078999996185303 -21.80699920654297,4.078999996185303z"></path></g><g opacity="1" transform="matrix(1,0,0,1,28.03700065612793,36.46699905395508)"><path fill="rgb(144,117,159)" fill-opacity="1" d=" M27.78700065612793,-32.520999908447266 C27.78700065612793,-32.520999908447266 19.381000518798828,-21.768999099731445 19.381000518798828,-21.768999099731445 C19.381000518798828,-21.768999099731445 18.371000289916992,-11.017000198364258 18.371000289916992,-11.017000198364258 C18.371000289916992,-11.017000198364258 6.429999828338623,16.257999420166016 6.429999828338623,16.257999420166016 C6.429999828338623,16.257999420166016 -4.199999809265137,25.73900032043457 -4.199999809265137,25.73900032043457 C-4.199999809265137,25.73900032043457 -23.882999420166016,35.21699905395508 -23.882999420166016,35.21699905395508 C-23.882999420166016,35.21699905395508 -27.78700065612793,-32.520999908447266 -27.78700065612793,-32.520999908447266 C-27.78700065612793,-32.520999908447266 -12.85099983215332,-33.7859992980957 -12.85099983215332,-33.7859992980957 C-12.85099983215332,-33.7859992980957 4.052000045776367,-35.21699905395508 4.052000045776367,-35.21699905395508 C4.052000045776367,-35.21699905395508 27.78700065612793,-32.520999908447266 27.78700065612793,-32.520999908447266z"></path></g><g opacity="1" transform="matrix(1,0,0,1,27.94499969482422,62.20500183105469)"><path fill="rgb(88,65,100)" fill-opacity="1" d=" M-23.791000366210938,9.479999542236328 C-23.791000366210938,9.479999542236328 23.791000366210938,9.479999542236328 23.791000366210938,9.479999542236328 C23.791000366210938,9.479999542236328 6.520999908447266,-9.479000091552734 6.520999908447266,-9.479000091552734 C6.520999908447266,-9.479000091552734 -23.791000366210938,9.479999542236328 -23.791000366210938,9.479999542236328z"></path></g><g opacity="1" transform="matrix(1,0,0,1,28.03700065612793,14.697999954223633)"><path fill="rgb(120,93,135)" fill-opacity="1" d=" M-27.78700065612793,-10.751999855041504 C-27.78700065612793,-10.751999855041504 18.371999740600586,10.751999855041504 18.371999740600586,10.751999855041504 C18.371999740600586,10.751999855041504 27.78700065612793,-10.751999855041504 27.78700065612793,-10.751999855041504 C27.78700065612793,-10.751999855041504 13.960000038146973,-10.751999855041504 13.960000038146973,-10.751999855041504 C13.960000038146973,-10.751999855041504 -0.5509999990463257,-10.751999855041504 -0.5509999990463257,-10.751999855041504 C-0.5509999990463257,-10.751999855041504 -27.78700065612793,-10.751999855041504 -27.78700065612793,-10.751999855041504z"></path></g></g><g transform="matrix(1,0,0,1,168.6479949951172,141.8179931640625)" opacity="1" style="display: block;"><g opacity="1" transform="matrix(1,0,0,1,17.959999084472656,44.60300064086914)"><path fill="rgb(115,77,95)" fill-opacity="1" d=" M17.709999084472656,10.54699993133545 C17.709999084472656,10.54699993133545 -9.647000312805176,44.35300064086914 -9.647000312805176,44.35300064086914 C-9.647000312805176,44.35300064086914 -17.709999084472656,-44.35300064086914 -17.709999084472656,-44.35300064086914 C-17.709999084472656,-44.35300064086914 17.709999084472656,10.54699993133545 17.709999084472656,10.54699993133545z"></path></g><g opacity="1" transform="matrix(1,0,0,1,33.87699890136719,73.23699951171875)"><path fill="rgb(83,47,66)" fill-opacity="1" d=" M-25.56399917602539,15.718000411987305 C-25.56399917602539,15.718000411987305 8.425999641418457,-28.635000228881836 8.425999641418457,-28.635000228881836 C8.425999641418457,-28.635000228881836 17.72100067138672,-20.566999435424805 17.72100067138672,-20.566999435424805 C17.72100067138672,-20.566999435424805 25.56399917602539,-7.804999828338623 25.56399917602539,-7.804999828338623 C25.56399917602539,-7.804999828338623 -3.1449999809265137,28.635000228881836 -3.1449999809265137,28.635000228881836 C-3.1449999809265137,28.635000228881836 -25.56399917602539,15.718000411987305 -25.56399917602539,15.718000411987305z"></path></g></g><g transform="matrix(1,0,0,1,25.16399383544922,168.07199096679688)" opacity="1" style="display: block;"><g opacity="1" transform="matrix(1,0,0,1,24.78499984741211,26.875)"><path fill="rgb(115,77,95)" fill-opacity="1" d=" M17.298999786376953,-21.430999755859375 C17.298999786376953,-21.430999755859375 24.53499984741211,14.628000259399414 24.53499984741211,14.628000259399414 C24.53499984741211,14.628000259399414 13.208000183105469,24.15399932861328 13.208000183105469,24.15399932861328 C13.208000183105469,24.15399932861328 3.3459999561309814,26.624000549316406 3.3459999561309814,26.624000549316406 C3.3459999561309814,26.624000549316406 -24.53499984741211,-26.624000549316406 -24.53499984741211,-26.624000549316406 C-24.53499984741211,-26.624000549316406 6.458000183105469,-25.433000564575195 6.458000183105469,-25.433000564575195 C6.458000183105469,-25.433000564575195 17.298999786376953,-21.430999755859375 17.298999786376953,-21.430999755859375z"></path></g><g opacity="1" transform="matrix(1,0,0,1,0,0)"><g opacity="1" transform="matrix(1,0,0,1,41.042999267578125,58.18899917602539)"><path fill="rgb(223,188,164)" fill-opacity="1" d=" M8.276000022888184,-16.68600082397461 C8.276000022888184,-16.68600082397461 12.913000106811523,4.513999938964844 12.913000106811523,4.513999938964844 C12.913000106811523,4.513999938964844 6.452000141143799,11.322999954223633 6.452000141143799,11.322999954223633 C6.452000141143799,11.322999954223633 -3.992000102996826,16.68600082397461 -3.992000102996826,16.68600082397461 C-3.992000102996826,16.68600082397461 -8.550999641418457,10.598999977111816 -8.550999641418457,10.598999977111816 C-8.550999641418457,10.598999977111816 -9.071999549865723,4.515999794006348 -9.071999549865723,4.515999794006348 C-9.071999549865723,4.515999794006348 -12.911999702453613,-4.689000129699707 -12.911999702453613,-4.689000129699707 C-12.911999702453613,-4.689000129699707 8.276000022888184,-16.68600082397461 8.276000022888184,-16.68600082397461z"></path></g><g opacity="1" transform="matrix(1,0,0,1,45.50400161743164,69.51100158691406)"><path fill="rgb(138,102,81)" fill-opacity="1" d=" M-8.45199966430664,5.36299991607666 C-8.45199966430664,5.36299991607666 8.45199966430664,-6.809000015258789 8.45199966430664,-6.809000015258789 C8.45199966430664,-6.809000015258789 7.118000030517578,6.809000015258789 7.118000030517578,6.809000015258789 C7.118000030517578,6.809000015258789 -8.45199966430664,5.36299991607666 -8.45199966430664,5.36299991607666z"></path></g><g opacity="1" transform="matrix(1,0,0,1,29.52400016784668,68.78800201416016)"><path fill="rgb(195,151,122)" fill-opacity="1" d=" M7.5269999504089355,6.085999965667725 C7.5269999504089355,6.085999965667725 -7.5269999504089355,4.414000034332275 -7.5269999504089355,4.414000034332275 C-7.5269999504089355,4.414000034332275 2.447000026702881,-6.085999965667725 2.447000026702881,-6.085999965667725 C2.447000026702881,-6.085999965667725 7.5269999504089355,6.085999965667725 7.5269999504089355,6.085999965667725z"></path></g></g></g><g transform="matrix(1,0,0,1,25.16399383544922,130.43399047851562)" opacity="1" style="display: block;"><g opacity="1" transform="matrix(1,0,0,1,46.41699981689453,22.738000869750977)"><path fill="rgb(149,98,123)" fill-opacity="1" d=" M46.16699981689453,-22.488000869750977 C46.16699981689453,-22.488000869750977 -46.16699981689453,15.149999618530273 -46.16699981689453,15.149999618530273 C-46.16699981689453,15.149999618530273 12.939000129699707,22.488000869750977 12.939000129699707,22.488000869750977 C12.939000129699707,22.488000869750977 28.79599952697754,5.1570000648498535 28.79599952697754,5.1570000648498535 C28.79599952697754,5.1570000648498535 46.16699981689453,-22.488000869750977 46.16699981689453,-22.488000869750977z"></path></g></g><g transform="matrix(1,0,0,1,70.32999420166016,116.27099609375)" opacity="1" style="display: block;"><g opacity="1" transform="matrix(1,0,0,1,53.439998626708984,100.96499633789062)"><path fill="rgb(179,135,157)" fill-opacity="1" d=" M4.440999984741211,-100.71499633789062 C4.440999984741211,-100.71499633789062 0.0010000000474974513,-88.77899932861328 0.0010000000474974513,-88.77899932861328 C0.0010000000474974513,-88.77899932861328 -6.0229997634887695,-86.5510025024414 -6.0229997634887695,-86.5510025024414 C-6.0229997634887695,-86.5510025024414 -16.101999282836914,-68.9000015258789 -16.101999282836914,-68.9000015258789 C-16.101999282836914,-68.9000015258789 -28.06100082397461,-56.72100067138672 -28.06100082397461,-56.72100067138672 C-28.06100082397461,-56.72100067138672 -39.250999450683594,-41.57699966430664 -39.250999450683594,-41.57699966430664 C-39.250999450683594,-41.57699966430664 -53.191001892089844,100.71499633789062 -53.191001892089844,100.71499633789062 C-53.191001892089844,100.71499633789062 53.191001892089844,100.71499633789062 53.191001892089844,100.71499633789062 C53.191001892089844,100.71499633789062 53.191001892089844,-38.54899978637695 53.191001892089844,-38.54899978637695 C53.191001892089844,-38.54899978637695 45.12799835205078,-55.270999908447266 45.12799835205078,-55.270999908447266 C45.12799835205078,-55.270999908447266 45.12799835205078,-75.16799926757812 45.12799835205078,-75.16799926757812 C45.12799835205078,-75.16799926757812 4.440999984741211,-100.71499633789062 4.440999984741211,-100.71499633789062z"></path></g><g opacity="1" transform="matrix(1,0,0,1,70.0989990234375,47.55099868774414)"><path fill="rgb(88,65,100)" fill-opacity="1" d=" M-22.68199920654297,-33.13800048828125 C-22.68199920654297,-33.13800048828125 -14.255000114440918,2.1589999198913574 -14.255000114440918,2.1589999198913574 C-14.255000114440918,2.1589999198913574 -2.6589999198913574,33.13800048828125 -2.6589999198913574,33.13800048828125 C-2.6589999198913574,33.13800048828125 14.840999603271484,8.053000450134277 14.840999603271484,8.053000450134277 C14.840999603271484,8.053000450134277 22.68199920654297,-11.548999786376953 22.68199920654297,-11.548999786376953 C22.68199920654297,-11.548999786376953 -22.68199920654297,-33.13800048828125 -22.68199920654297,-33.13800048828125z"></path></g><g opacity="1" transform="matrix(1,0,0,1,72.99199676513672,25.67799949645996)"><path fill="rgb(144,117,159)" fill-opacity="1" d=" M-15.111000061035156,-25.42799949645996 C-15.111000061035156,-25.42799949645996 -25.576000213623047,-11.263999938964844 -25.576000213623047,-11.263999938964844 C-25.576000213623047,-11.263999938964844 -16.56399917602539,18.56599998474121 -16.56399917602539,18.56599998474121 C-16.56399917602539,18.56599998474121 -1.5210000276565552,6.38700008392334 -1.5210000276565552,6.38700008392334 C-1.5210000276565552,6.38700008392334 11.222999572753906,25.42799949645996 11.222999572753906,25.42799949645996 C11.222999572753906,25.42799949645996 19.78700065612793,10.324000358581543 19.78700065612793,10.324000358581543 C19.78700065612793,10.324000358581543 25.576000213623047,0.11900000274181366 25.576000213623047,0.11900000274181366 C25.576000213623047,0.11900000274181366 0.3930000066757202,-0.1599999964237213 0.3930000066757202,-0.1599999964237213 C0.3930000066757202,-0.1599999964237213 -15.111000061035156,-25.42799949645996 -15.111000061035156,-25.42799949645996z"></path></g><g opacity="1" transform="matrix(1,0,0,1,46.40999984741211,47.55099868774414)"><path fill="rgb(209,160,184)" fill-opacity="1" d=" M21.0310001373291,33.137001037597656 C21.0310001373291,33.137001037597656 -21.0310001373291,-3.306999921798706 -21.0310001373291,-3.306999921798706 C-21.0310001373291,-3.306999921798706 1.0080000162124634,-33.137001037597656 1.0080000162124634,-33.137001037597656 C1.0080000162124634,-33.137001037597656 21.0310001373291,33.137001037597656 21.0310001373291,33.137001037597656z"></path></g><g opacity="1" transform="matrix(1,0,0,1,87.03500366210938,53.242000579833984)"><path fill="rgb(179,135,157)" fill-opacity="1" d=" M11.532999992370605,-27.445999145507812 C11.532999992370605,-27.445999145507812 19.59600067138672,9.17199993133545 19.59600067138672,9.17199993133545 C19.59600067138672,9.17199993133545 -19.59600067138672,27.445999145507812 -19.59600067138672,27.445999145507812 C-19.59600067138672,27.445999145507812 11.532999992370605,-27.445999145507812 11.532999992370605,-27.445999145507812z"></path></g><g opacity="1" transform="matrix(1,0,0,1,87.03600311279297,132.0469970703125)"><path fill="rgb(149,98,123)" fill-opacity="1" d=" M-19.59600067138672,-51.35900115966797 C-19.59600067138672,-51.35900115966797 -19.59600067138672,69.63200378417969 -19.59600067138672,69.63200378417969 C-19.59600067138672,69.63200378417969 19.59600067138672,69.63200378417969 19.59600067138672,69.63200378417969 C19.59600067138672,69.63200378417969 19.59600067138672,-69.63200378417969 19.59600067138672,-69.63200378417969 C19.59600067138672,-69.63200378417969 -19.59600067138672,-51.35900115966797 -19.59600067138672,-51.35900115966797z"></path></g><g opacity="1" transform="matrix(1,0,0,1,80.75,107.53099822998047)"><path fill="rgb(115,77,95)" fill-opacity="1" d=" M6.736000061035156,0 C6.736000061035156,0 0.0010000000474974513,6.736000061035156 0.0010000000474974513,6.736000061035156 C0.0010000000474974513,6.736000061035156 -6.736000061035156,0 -6.736000061035156,0 C-6.736000061035156,0 0.0020000000949949026,-6.736000061035156 0.0020000000949949026,-6.736000061035156 C0.0020000000949949026,-6.736000061035156 6.736000061035156,0 6.736000061035156,0z"></path></g><g opacity="1" transform="matrix(1,0,0,1,80.75,140.98599243164062)"><path fill="rgb(115,77,95)" fill-opacity="1" d=" M6.736000061035156,0.0010000000474974513 C6.736000061035156,0.0010000000474974513 0.0010000000474974513,6.735000133514404 0.0010000000474974513,6.735000133514404 C0.0010000000474974513,6.735000133514404 -6.736000061035156,0.0010000000474974513 -6.736000061035156,0.0010000000474974513 C-6.736000061035156,0.0010000000474974513 0.0020000000949949026,-6.735000133514404 0.0020000000949949026,-6.735000133514404 C0.0020000000949949026,-6.735000133514404 6.736000061035156,0.0010000000474974513 6.736000061035156,0.0010000000474974513z"></path></g><g opacity="1" transform="matrix(1,0,0,1,80.75,174.44200134277344)"><path fill="rgb(115,77,95)" fill-opacity="1" d=" M6.736000061035156,0 C6.736000061035156,0 0.0010000000474974513,6.735000133514404 0.0010000000474974513,6.735000133514404 C0.0010000000474974513,6.735000133514404 -6.736000061035156,0 -6.736000061035156,0 C-6.736000061035156,0 0.0020000000949949026,-6.735000133514404 0.0020000000949949026,-6.735000133514404 C0.0020000000949949026,-6.735000133514404 6.736000061035156,0 6.736000061035156,0z"></path></g><g opacity="1" transform="matrix(1,0,0,1,30.047998428344727,89.04199981689453)"><path fill="rgb(120,93,135)" fill-opacity="1" d=" M8.156000137329102,12.678000450134277 C8.156000137329102,12.678000450134277 1.3339999914169312,15.015000343322754 1.3339999914169312,15.015000343322754 C1.3339999914169312,15.015000343322754 -8.156000137329102,-12.677000045776367 -8.156000137329102,-12.677000045776367 C-8.156000137329102,-12.677000045776367 -1.3339999914169312,-15.015000343322754 -1.3339999914169312,-15.015000343322754 C-1.3339999914169312,-15.015000343322754 8.156000137329102,12.678000450134277 8.156000137329102,12.678000450134277z"></path></g><g opacity="1" transform="matrix(1,0,0,1,38.823001861572266,102.8280029296875)"><path fill="rgb(149,98,123)" fill-opacity="1" d=" M19.058000564575195,3.072999954223633 C19.058000564575195,3.072999954223633 -19.058000564575195,3.072999954223633 -19.058000564575195,3.072999954223633 C-19.058000564575195,3.072999954223633 -19.058000564575195,-3.072999954223633 -19.058000564575195,-3.072999954223633 C-19.058000564575195,-3.072999954223633 19.058000564575195,-3.072999954223633 19.058000564575195,-3.072999954223633 C19.058000564575195,-3.072999954223633 19.058000564575195,3.072999954223633 19.058000564575195,3.072999954223633z"></path></g></g><g transform="matrix(1,0,0,1,127.96099853515625,-0.25)" opacity="1" style="display: block;"><g opacity="1" transform="matrix(1,0,0,1,71.29199981689453,95.5739974975586)"><path fill="rgb(223,188,164)" fill-opacity="1" d=" M15.505000114440918,68.47799682617188 C15.505000114440918,68.47799682617188 -29.868000030517578,44.66699981689453 -29.868000030517578,44.66699981689453 C-29.868000030517578,44.66699981689453 -57.45199966430664,53.01100158691406 -57.45199966430664,53.01100158691406 C-57.45199966430664,53.01100158691406 -60.994998931884766,32.46699905395508 -60.994998931884766,32.46699905395508 C-60.994998931884766,32.46699905395508 -71.04199981689453,21.19700050354004 -71.04199981689453,21.19700050354004 C-71.04199981689453,21.19700050354004 -59.959999084472656,11.541000366210938 -59.959999084472656,11.541000366210938 C-59.959999084472656,11.541000366210938 -58.428001403808594,2.3259999752044678 -58.428001403808594,2.3259999752044678 C-58.428001403808594,2.3259999752044678 -50.77899932861328,-9.11400032043457 -50.77899932861328,-9.11400032043457 C-50.77899932861328,-9.11400032043457 -56.58300018310547,-13.32699966430664 -56.58300018310547,-13.32699966430664 C-56.58300018310547,-13.32699966430664 -52.34600067138672,-35.124000549316406 -52.34600067138672,-35.124000549316406 C-52.34600067138672,-35.124000549316406 -38.81999969482422,-33.92300033569336 -38.81999969482422,-33.92300033569336 C-38.81999969482422,-33.92300033569336 -35.66699981689453,-12.800999641418457 -35.66699981689453,-12.800999641418457 C-35.66699981689453,-12.800999641418457 -25.562000274658203,-11.96399974822998 -25.562000274658203,-11.96399974822998 C-25.562000274658203,-11.96399974822998 -12.34000015258789,-67.3759994506836 -12.34000015258789,-67.3759994506836 C-12.34000015258789,-67.3759994506836 10.055000305175781,-68.47799682617188 10.055000305175781,-68.47799682617188 C10.055000305175781,-68.47799682617188 52.46900177001953,-34.415000915527344 52.46900177001953,-34.415000915527344 C52.46900177001953,-34.415000915527344 71.04199981689453,-31.371999740600586 71.04199981689453,-31.371999740600586 C71.04199981689453,-31.371999740600586 41.178001403808594,29.0049991607666 41.178001403808594,29.0049991607666 C41.178001403808594,29.0049991607666 15.505000114440918,68.47799682617188 15.505000114440918,68.47799682617188z"></path></g><g opacity="1" transform="matrix(1,0,0,1,99.9209976196289,87.19599914550781)"><path fill="rgb(195,151,122)" fill-opacity="1" d=" M23.56399917602539,5.019000053405762 C23.56399917602539,5.019000053405762 -0.4480000138282776,6.0879998207092285 -0.4480000138282776,6.0879998207092285 C-0.4480000138282776,6.0879998207092285 -22.509000778198242,25.766000747680664 -22.509000778198242,25.766000747680664 C-22.509000778198242,25.766000747680664 -15.829999923706055,-6.418000221252441 -15.829999923706055,-6.418000221252441 C-15.829999923706055,-6.418000221252441 -23.56399917602539,-25.766000747680664 -23.56399917602539,-25.766000747680664 C-23.56399917602539,-25.766000747680664 -6.083000183105469,-12.460000038146973 -6.083000183105469,-12.460000038146973 C-6.083000183105469,-12.460000038146973 7.234000205993652,-7.579999923706055 7.234000205993652,-7.579999923706055 C7.234000205993652,-7.579999923706055 15.833999633789062,-6.876999855041504 15.833999633789062,-6.876999855041504 C15.833999633789062,-6.876999855041504 23.56399917602539,5.019000053405762 23.56399917602539,5.019000053405762z"></path></g><g opacity="1" transform="matrix(1,0,0,1,115.32099914550781,82.0459976196289)"><path fill="rgb(115,77,95)" fill-opacity="1" d=" M0.8830000162124634,-10.168999671936035 C0.8830000162124634,-10.168999671936035 8.164999961853027,10.168999671936035 8.164999961853027,10.168999671936035 C8.164999961853027,10.168999671936035 -8.164999961853027,-2.430000066757202 -8.164999961853027,-2.430000066757202 C-8.164999961853027,-2.430000066757202 0.8830000162124634,-10.168999671936035 0.8830000162124634,-10.168999671936035z"></path></g><g opacity="1" transform="matrix(1,0,0,1,85.0979995727539,71.10399627685547)"><path fill="rgb(115,77,95)" fill-opacity="1" d=" M8.739999771118164,3.631999969482422 C8.739999771118164,3.631999969482422 -8.739999771118164,-9.673999786376953 -8.739999771118164,-9.673999786376953 C-8.739999771118164,-9.673999786376953 -1.0069999694824219,9.673999786376953 -1.0069999694824219,9.673999786376953 C-1.0069999694824219,9.673999786376953 8.739999771118164,3.631999969482422 8.739999771118164,3.631999969482422z"></path></g><g opacity="1" transform="matrix(1,0,0,1,92.28399658203125,96.24700164794922)"><path fill="rgb(232,201,182)" fill-opacity="1" d=" M14.871999740600586,-16.631000518798828 C14.871999740600586,-16.631000518798828 -6.572000026702881,21.51099967956543 -6.572000026702881,21.51099967956543 C-6.572000026702881,21.51099967956543 -14.871999740600586,16.71500015258789 -14.871999740600586,16.71500015258789 C-14.871999740600586,16.71500015258789 1.5529999732971191,-21.51099967956543 1.5529999732971191,-21.51099967956543 C1.5529999732971191,-21.51099967956543 14.871999740600586,-16.631000518798828 14.871999740600586,-16.631000518798828z"></path></g><g opacity="1" transform="matrix(1,0,0,1,104.92400360107422,101.83699798583984)"><path fill="rgb(0,0,0)" fill-opacity="1" d=" M3.109999895095825,-4.452000141143799 C4.682000160217285,-3.3540000915527344 4.560999870300293,-0.4729999899864197 2.8450000286102295,1.9880000352859497 C1.1269999742507935,4.447999954223633 -1.5379999876022339,5.551000118255615 -3.1089999675750732,4.453999996185303 C-4.682000160217285,3.3559999465942383 -4.565000057220459,0.4740000069141388 -2.8469998836517334,-1.9859999418258667 C-1.1299999952316284,-4.445000171661377 1.5369999408721924,-5.551000118255615 3.109999895095825,-4.452000141143799z"></path></g><g opacity="1" transform="matrix(1,0,0,1,78.7760009765625,86.41899871826172)"><path fill="rgb(0,0,0)" fill-opacity="1" d=" M3.1070001125335693,-4.452000141143799 C4.681000232696533,-3.3559999465942383 4.560999870300293,-0.47099998593330383 2.8429999351501465,1.9880000352859497 C1.125,4.447000026702881 -1.5379999876022339,5.550000190734863 -3.109999895095825,4.453999996185303 C-4.681000232696533,3.3559999465942383 -4.563000202178955,0.4740000069141388 -2.8459999561309814,-1.9839999675750732 C-1.128000020980835,-4.443999767303467 1.5379999876022339,-5.551000118255615 3.1070001125335693,-4.452000141143799z"></path></g><g opacity="1" transform="matrix(1,0,0,1,81.56199645996094,117.04199981689453)"><path fill="rgb(138,102,81)" fill-opacity="1" d=" M4.150000095367432,0.7160000205039978 C4.150000095367432,0.7160000205039978 -2.994999885559082,4.079999923706055 -2.994999885559082,4.079999923706055 C-2.994999885559082,4.079999923706055 -4.150000095367432,-4.079999923706055 -4.150000095367432,-4.079999923706055 C-4.150000095367432,-4.079999923706055 4.150000095367432,0.7160000205039978 4.150000095367432,0.7160000205039978z"></path></g><g opacity="1" transform="matrix(1,0,0,1,66.16999816894531,125.3759994506836)"><path fill="rgb(138,102,81)" fill-opacity="1" d=" M14.42300033569336,10.468000411987305 C14.42300033569336,10.468000411987305 -13.069999694824219,-11.545000076293945 -13.069999694824219,-11.545000076293945 C-13.069999694824219,-11.545000076293945 -14.42300033569336,-8.574999809265137 -14.42300033569336,-8.574999809265137 C-14.42300033569336,-8.574999809265137 11.538999557495117,11.545000076293945 11.538999557495117,11.545000076293945 C11.538999557495117,11.545000076293945 14.42300033569336,10.468000411987305 14.42300033569336,10.468000411987305z"></path></g><g opacity="1" transform="matrix(1,0,0,1,25.55500030517578,73.29100036621094)"><path fill="rgb(138,102,81)" fill-opacity="1" d=" M-0.10400000214576721,-6.933000087738037 C-0.10400000214576721,-6.933000087738037 3.875,6.933000087738037 3.875,6.933000087738037 C3.875,6.933000087738037 -3.875,0.7300000190734863 -3.875,0.7300000190734863 C-3.875,0.7300000190734863 -0.10400000214576721,-6.933000087738037 -0.10400000214576721,-6.933000087738037z"></path></g><g opacity="1" transform="matrix(1,0,0,1,20.086999893188477,91.73600006103516)"><path fill="rgb(138,102,81)" fill-opacity="1" d=" M-0.7950000166893005,-6.164000034332275 C-0.7950000166893005,-6.164000034332275 7.2220001220703125,-0.6129999756813049 7.2220001220703125,-0.6129999756813049 C7.2220001220703125,-0.6129999756813049 -7.2220001220703125,6.164000034332275 -7.2220001220703125,6.164000034332275 C-7.2220001220703125,6.164000034332275 -0.7950000166893005,-6.164000034332275 -0.7950000166893005,-6.164000034332275z"></path></g><g opacity="1" transform="matrix(1,0,0,1,50.31800079345703,142.58700561523438)"><path fill="rgb(138,102,81)" fill-opacity="1" d=" M36.479000091552734,21.464000701904297 C36.479000091552734,21.464000701904297 -15.579000473022461,-12.164999961853027 -15.579000473022461,-12.164999961853027 C-15.579000473022461,-12.164999961853027 -25.95199966430664,-21.46500015258789 -25.95199966430664,-21.46500015258789 C-25.95199966430664,-21.46500015258789 -36.479000091552734,5.997000217437744 -36.479000091552734,5.997000217437744 C-36.479000091552734,5.997000217437744 -9.381999969482422,-0.27000001072883606 -9.381999969482422,-0.27000001072883606 C-9.381999969482422,-0.27000001072883606 36.479000091552734,21.464000701904297 36.479000091552734,21.464000701904297z"></path></g><g opacity="1" transform="matrix(1,0,0,1,40.79899978637695,87.83999633789062)"><path fill="rgb(195,151,122)" fill-opacity="1" d=" M40.54899978637695,-60.74399948120117 C40.54899978637695,-60.74399948120117 35.55799865722656,-26.410999298095703 35.55799865722656,-26.410999298095703 C35.55799865722656,-26.410999298095703 -6.059999942779541,42.58000183105469 -6.059999942779541,42.58000183105469 C-6.059999942779541,42.58000183105469 -14.765999794006348,36.73400115966797 -14.765999794006348,36.73400115966797 C-14.765999794006348,36.73400115966797 -26.958999633789062,60.74399948120117 -26.958999633789062,60.74399948120117 C-26.958999633789062,60.74399948120117 -40.54899978637695,28.93000030517578 -40.54899978637695,28.93000030517578 C-40.54899978637695,28.93000030517578 -27.93400001525879,10.059000015258789 -27.93400001525879,10.059000015258789 C-27.93400001525879,10.059000015258789 -21.506999969482422,-2.2690000534057617 -21.506999969482422,-2.2690000534057617 C-21.506999969482422,-2.2690000534057617 -13.489999771118164,3.2820000648498535 -13.489999771118164,3.2820000648498535 C-13.489999771118164,3.2820000648498535 -5.173999786376953,-5.067999839782715 -5.173999786376953,-5.067999839782715 C-5.173999786376953,-5.067999839782715 4.929999828338623,-4.230999946594238 4.929999828338623,-4.230999946594238 C4.929999828338623,-4.230999946594238 18.152999877929688,-59.643001556396484 18.152999877929688,-59.643001556396484 C18.152999877929688,-59.643001556396484 40.54899978637695,-60.74399948120117 40.54899978637695,-60.74399948120117z"></path></g><g opacity="1" transform="matrix(1,0,0,1,139.85299682617188,46.73099899291992)"><path fill="rgb(70,70,70)" fill-opacity="1" d=" M16.996000289916992,19.124000549316406 C16.996000289916992,19.124000549316406 2.4830000400543213,17.47100067138672 2.4830000400543213,17.47100067138672 C2.4830000400543213,17.47100067138672 -16.9950008392334,16.408000946044922 -16.9950008392334,16.408000946044922 C-16.9950008392334,16.408000946044922 -6.543000221252441,-4.302999973297119 -6.543000221252441,-4.302999973297119 C-6.543000221252441,-4.302999973297119 9.973999977111816,-19.124000549316406 9.973999977111816,-19.124000549316406 C9.973999977111816,-19.124000549316406 16.996000289916992,19.124000549316406 16.996000289916992,19.124000549316406z"></path></g><g opacity="1" transform="matrix(1,0,0,1,109.75199890136719,31.69499969482422)"><path fill="rgb(133,133,133)" fill-opacity="1" d=" M40.07500076293945,-4.0879998207092285 C40.07500076293945,-4.0879998207092285 -40.07500076293945,-31.44499969482422 -40.07500076293945,-31.44499969482422 C-40.07500076293945,-31.44499969482422 -36.61800003051758,-15.062000274658203 -36.61800003051758,-15.062000274658203 C-36.61800003051758,-15.062000274658203 -28.222000122070312,-2.5829999446868896 -28.222000122070312,-2.5829999446868896 C-28.222000122070312,-2.5829999446868896 13.104999542236328,31.44499969482422 13.104999542236328,31.44499969482422 C13.104999542236328,31.44499969482422 40.07500076293945,-4.0879998207092285 40.07500076293945,-4.0879998207092285z"></path></g><g opacity="1" transform="matrix(1,0,0,1,65.26499938964844,14.963000297546387)"><path fill="rgb(110,112,115)" fill-opacity="1" d=" M16.266000747680664,14.14900016784668 C16.266000747680664,14.14900016784668 -4.686999797821045,14.713000297546387 -4.686999797821045,14.713000297546387 C-4.686999797821045,14.713000297546387 -12.690999984741211,7.239999771118164 -12.690999984741211,7.239999771118164 C-12.690999984741211,7.239999771118164 -16.266000747680664,-2.250999927520752 -16.266000747680664,-2.250999927520752 C-16.266000747680664,-2.250999927520752 4.410999774932861,-14.713000297546387 4.410999774932861,-14.713000297546387 C4.410999774932861,-14.713000297546387 16.266000747680664,14.14900016784668 16.266000747680664,14.14900016784668z"></path></g><g opacity="1" transform="matrix(1,0,0,1,31.73699951171875,49.26599884033203)"><path fill="rgb(70,70,70)" fill-opacity="1" d=" M28.841999053955078,-19.590999603271484 C28.841999053955078,-19.590999603271484 15.006999969482422,36.55500030517578 15.006999969482422,36.55500030517578 C15.006999969482422,36.55500030517578 2.9230000972747803,34.81399917602539 2.9230000972747803,34.81399917602539 C2.9230000972747803,34.81399917602539 0.02800000086426735,13.534000396728516 0.02800000086426735,13.534000396728516 C0.02800000086426735,13.534000396728516 -12.154999732971191,12.208000183105469 -12.154999732971191,12.208000183105469 C-12.154999732971191,12.208000183105469 -15.51200008392334,25.180999755859375 -15.51200008392334,25.180999755859375 C-15.51200008392334,25.180999755859375 -28.841999053955078,-7.269000053405762 -28.841999053955078,-7.269000053405762 C-28.841999053955078,-7.269000053405762 17.26300048828125,-36.55500030517578 17.26300048828125,-36.55500030517578 C17.26300048828125,-36.55500030517578 28.841999053955078,-19.590999603271484 28.841999053955078,-19.590999603271484z"></path></g><g opacity="1" transform="matrix(1,0,0,1,20.086999893188477,91.73500061035156)"><path fill="rgb(138,102,81)" fill-opacity="1" d=" M7.2220001220703125,-0.6129999756813049 C7.2220001220703125,-0.6129999756813049 -7.2220001220703125,6.164000034332275 -7.2220001220703125,6.164000034332275 C-7.2220001220703125,6.164000034332275 -0.7950000166893005,-6.164000034332275 -0.7950000166893005,-6.164000034332275 C-0.7950000166893005,-6.164000034332275 7.2220001220703125,-0.6129999756813049 7.2220001220703125,-0.6129999756813049z"></path></g></g><g transform="matrix(1,0,0,1,210.70098876953125,163.5709991455078)" opacity="1" style="display: block;"><g opacity="1" transform="matrix(1,0,0,1,16.885000228881836,32.917999267578125)"><path fill="rgb(138,102,81)" fill-opacity="1" d=" M-16.635000228881836,-10.069000244140625 C-16.635000228881836,-10.069000244140625 -3.1110000610351562,-9.362000465393066 -3.1110000610351562,-9.362000465393066 C-3.1110000610351562,-9.362000465393066 16.635000228881836,-10.76099967956543 16.635000228881836,-10.76099967956543 C16.635000228881836,-10.76099967956543 0.5019999742507935,10.76099967956543 0.5019999742507935,10.76099967956543 C0.5019999742507935,10.76099967956543 -16.635000228881836,-10.069000244140625 -16.635000228881836,-10.069000244140625z"></path></g><g opacity="1" transform="matrix(1,0,0,1,7.01200008392334,16.540000915527344)"><path fill="rgb(195,151,122)" fill-opacity="1" d=" M-6.76200008392334,6.309000015258789 C-6.76200008392334,6.309000015258789 1.7630000114440918,-9.71500015258789 1.7630000114440918,-9.71500015258789 C1.7630000114440918,-9.71500015258789 6.76200008392334,9.71500015258789 6.76200008392334,9.71500015258789 C6.76200008392334,9.71500015258789 -6.76200008392334,6.309000015258789 -6.76200008392334,6.309000015258789z"></path></g><g opacity="1" transform="matrix(1,0,0,1,15.060999870300293,21.96500015258789)"><path fill="rgb(149,98,123)" fill-opacity="1" d=" M7.535999774932861,20.423999786376953 C7.535999774932861,20.423999786376953 2.3269999027252197,21.71500015258789 2.3269999027252197,21.71500015258789 C2.3269999027252197,21.71500015258789 -7.535999774932861,-20.493999481201172 -7.535999774932861,-20.493999481201172 C-7.535999774932861,-20.493999481201172 -2.311000108718872,-21.71500015258789 -2.311000108718872,-21.71500015258789 C-2.311000108718872,-21.71500015258789 7.535999774932861,20.423999786376953 7.535999774932861,20.423999786376953z"></path></g><g opacity="1" transform="matrix(1,0,0,1,26.56599998474121,14.74899959564209)"><path fill="rgb(223,188,164)" fill-opacity="1" d=" M-12.486000061035156,-8.807000160217285 C-12.486000061035156,-8.807000160217285 -11.505999565124512,8.807000160217285 -11.505999565124512,8.807000160217285 C-11.505999565124512,8.807000160217285 10.187000274658203,6.752999782562256 10.187000274658203,6.752999782562256 C10.187000274658203,6.752999782562256 12.486000061035156,-6.429999828338623 12.486000061035156,-6.429999828338623 C12.486000061035156,-6.429999828338623 -12.486000061035156,-8.807000160217285 -12.486000061035156,-8.807000160217285z"></path></g><g opacity="1" transform="matrix(1,0,0,1,25.033000946044922,16.097999572753906)"><path fill="rgb(195,151,122)" fill-opacity="1" d=" M-10.95300006866455,-10.156000137329102 C-10.95300006866455,-10.156000137329102 11.718999862670898,5.4039998054504395 11.718999862670898,5.4039998054504395 C11.718999862670898,5.4039998054504395 -11.718999862670898,10.156000137329102 -11.718999862670898,10.156000137329102 C-11.718999862670898,10.156000137329102 -10.95300006866455,-10.156000137329102 -10.95300006866455,-10.156000137329102z"></path></g></g><g transform="matrix(1,0,0,1,199.2310028076172,198.65599060058594)" opacity="1" style="display: block;"><g opacity="1" transform="matrix(1,0,0,1,49.92499923706055,24.361000061035156)"><path fill="rgb(120,93,135)" fill-opacity="1" d=" M2.2899999618530273,5.435999870300293 C2.2899999618530273,5.435999870300293 -0.0010000000474974513,6.988999843597412 -0.0010000000474974513,6.988999843597412 C-0.0010000000474974513,6.988999843597412 -2.365999937057495,5.435999870300293 -2.365999937057495,5.435999870300293 C-2.365999937057495,5.435999870300293 -3.2149999141693115,-1.8860000371932983 -3.2149999141693115,-1.8860000371932983 C-3.2149999141693115,-1.8860000371932983 -2.365999937057495,-6.988999843597412 -2.365999937057495,-6.988999843597412 C-2.365999937057495,-6.988999843597412 2.2899999618530273,-6.988999843597412 2.2899999618530273,-6.988999843597412 C2.2899999618530273,-6.988999843597412 3.2149999141693115,-2.6389999389648438 3.2149999141693115,-2.6389999389648438 C3.2149999141693115,-2.6389999389648438 2.2899999618530273,5.435999870300293 2.2899999618530273,5.435999870300293z"></path></g><g opacity="1" transform="matrix(1,0,0,1,11.447999954223633,20.7189998626709)"><path fill="rgb(149,98,123)" fill-opacity="1" d=" M10.493000030517578,-9.800000190734863 C10.493000030517578,-9.800000190734863 -4.982999801635742,-9.800000190734863 -4.982999801635742,-9.800000190734863 C-4.982999801635742,-9.800000190734863 -11.197999954223633,-9.800000190734863 -11.197999954223633,-9.800000190734863 C-11.197999954223633,-9.800000190734863 -11.197999954223633,9.07800006866455 -11.197999954223633,9.07800006866455 C-11.197999954223633,9.07800006866455 -3.052000045776367,9.800000190734863 -3.052000045776367,9.800000190734863 C-3.052000045776367,9.800000190734863 10.493000030517578,9.07800006866455 10.493000030517578,9.07800006866455 C10.493000030517578,9.07800006866455 11.197999954223633,-1.2280000448226929 11.197999954223633,-1.2280000448226929 C11.197999954223633,-1.2280000448226929 10.493000030517578,-9.800000190734863 10.493000030517578,-9.800000190734863z"></path></g><g opacity="1" transform="matrix(1,0,0,1,34.75,9.6899995803833)"><path fill="rgb(120,93,135)" fill-opacity="1" d=" M-12.104999542236328,-8.645999908447266 C-12.104999542236328,-8.645999908447266 -12.8100004196167,1.2289999723434448 -12.8100004196167,1.2289999723434448 C-12.8100004196167,1.2289999723434448 -12.8100004196167,7.682000160217285 -12.8100004196167,7.682000160217285 C-12.8100004196167,7.682000160217285 -0.6840000152587891,8.645999908447266 -0.6840000152587891,8.645999908447266 C-0.6840000152587891,8.645999908447266 12.8100004196167,7.682000160217285 12.8100004196167,7.682000160217285 C12.8100004196167,7.682000160217285 12.8100004196167,1.2289999723434448 12.8100004196167,1.2289999723434448 C12.8100004196167,1.2289999723434448 11.552000045776367,-8.371999740600586 11.552000045776367,-8.371999740600586 C11.552000045776367,-8.371999740600586 -12.104999542236328,-8.645999908447266 -12.104999542236328,-8.645999908447266z"></path></g><g opacity="1" transform="matrix(1,0,0,1,34.750999450683594,24.361000061035156)"><path fill="rgb(88,65,100)" fill-opacity="1" d=" M12.8100004196167,5.435999870300293 C12.8100004196167,5.435999870300293 -0.6850000023841858,6.988999843597412 -0.6850000023841858,6.988999843597412 C-0.6850000023841858,6.988999843597412 -12.8100004196167,5.435999870300293 -12.8100004196167,5.435999870300293 C-12.8100004196167,5.435999870300293 -12.8100004196167,-6.988999843597412 -12.8100004196167,-6.988999843597412 C-12.8100004196167,-6.988999843597412 12.8100004196167,-6.988999843597412 12.8100004196167,-6.988999843597412 C12.8100004196167,-6.988999843597412 12.8100004196167,5.435999870300293 12.8100004196167,5.435999870300293z"></path></g><g opacity="1" transform="matrix(1,0,0,1,34.750999450683594,5.585000038146973)"><path fill="rgb(88,65,100)" fill-opacity="1" d=" M12.8100004196167,5.335000038146973 C12.8100004196167,5.335000038146973 -12.8100004196167,5.335000038146973 -12.8100004196167,5.335000038146973 C-12.8100004196167,5.335000038146973 -12.8100004196167,-5.335000038146973 -12.8100004196167,-5.335000038146973 C-12.8100004196167,-5.335000038146973 12.8100004196167,-5.335000038146973 12.8100004196167,-5.335000038146973 C12.8100004196167,-5.335000038146973 12.8100004196167,5.335000038146973 12.8100004196167,5.335000038146973z"></path></g><g opacity="1" transform="matrix(1,0,0,1,67.44499969482422,25.909000396728516)"><path fill="rgb(149,98,123)" fill-opacity="1" d=" M13.229999542236328,4.058000087738037 C13.229999542236328,4.058000087738037 -0.9039999842643738,4.610000133514404 -0.9039999842643738,4.610000133514404 C-0.9039999842643738,4.610000133514404 -15.229999542236328,4.058000087738037 -15.229999542236328,4.058000087738037 C-15.229999542236328,4.058000087738037 -15.229999542236328,-3.434000015258789 -15.229999542236328,-3.434000015258789 C-15.229999542236328,-3.434000015258789 -1.0829999446868896,-4.610000133514404 -1.0829999446868896,-4.610000133514404 C-1.0829999446868896,-4.610000133514404 15.229999542236328,-3.434000015258789 15.229999542236328,-3.434000015258789 C15.229999542236328,-3.434000015258789 15.229999542236328,1.6959999799728394 15.229999542236328,1.6959999799728394 C15.229999542236328,1.6959999799728394 13.229999542236328,4.058000087738037 13.229999542236328,4.058000087738037z"></path></g><g opacity="1" transform="matrix(1,0,0,1,67.44499969482422,19.31999969482422)"><path fill="rgb(83,47,66)" fill-opacity="1" d=" M15.229999542236328,3.1540000438690186 C15.229999542236328,3.1540000438690186 -15.229999542236328,3.1540000438690186 -15.229999542236328,3.1540000438690186 C-15.229999542236328,3.1540000438690186 -15.229999542236328,-1.965000033378601 -15.229999542236328,-1.965000033378601 C-15.229999542236328,-1.965000033378601 -1.4049999713897705,-3.1540000438690186 -1.4049999713897705,-3.1540000438690186 C-1.4049999713897705,-3.1540000438690186 15.229999542236328,-1.965000033378601 15.229999542236328,-1.965000033378601 C15.229999542236328,-1.965000033378601 15.229999542236328,3.1540000438690186 15.229999542236328,3.1540000438690186z"></path></g><g opacity="1" transform="matrix(1,0,0,1,67.44499969482422,14.446000099182129)"><path fill="rgb(149,98,123)" fill-opacity="1" d=" M15.229999542236328,2.9100000858306885 C15.229999542236328,2.9100000858306885 -15.229999542236328,2.9100000858306885 -15.229999542236328,2.9100000858306885 C-15.229999542236328,2.9100000858306885 -15.229999542236328,-2.2109999656677246 -15.229999542236328,-2.2109999656677246 C-15.229999542236328,-2.2109999656677246 -0.972000002861023,-2.9100000858306885 -0.972000002861023,-2.9100000858306885 C-0.972000002861023,-2.9100000858306885 15.229999542236328,-2.2109999656677246 15.229999542236328,-2.2109999656677246 C15.229999542236328,-2.2109999656677246 15.229999542236328,2.9100000858306885 15.229999542236328,2.9100000858306885z"></path></g><g opacity="1" transform="matrix(1,0,0,1,67.44499969482422,9.675999641418457)"><path fill="rgb(83,47,66)" fill-opacity="1" d=" M15.229999542236328,2.559000015258789 C15.229999542236328,2.559000015258789 -15.229999542236328,2.559000015258789 -15.229999542236328,2.559000015258789 C-15.229999542236328,2.559000015258789 -15.229999542236328,-2.559000015258789 -15.229999542236328,-2.559000015258789 C-15.229999542236328,-2.559000015258789 15.229999542236328,-2.559000015258789 15.229999542236328,-2.559000015258789 C15.229999542236328,-2.559000015258789 15.229999542236328,2.559000015258789 15.229999542236328,2.559000015258789z"></path></g></g><g transform="matrix(1,0,0,1,39.91200256347656,226.00999450683594)" opacity="1" style="display: block;"><g opacity="1" transform="matrix(1,0,0,1,225.91299438476562,136.16600036621094)"><path fill="rgb(115,77,95)" fill-opacity="1" d=" M0,-11.98900032043457 C0,-11.98900032043457 -7.159999847412109,-10.357000350952148 -7.159999847412109,-10.357000350952148 C-7.159999847412109,-10.357000350952148 -7.159999847412109,-0.27900001406669617 -7.159999847412109,-0.27900001406669617 C-7.159999847412109,-0.27900001406669617 -7.159999847412109,9.758000373840332 -7.159999847412109,9.758000373840332 C-7.159999847412109,9.758000373840332 0.004999999888241291,11.98799991607666 0.004999999888241291,11.98799991607666 C0.004999999888241291,11.98799991607666 7.159999847412109,9.758000373840332 7.159999847412109,9.758000373840332 C7.159999847412109,9.758000373840332 7.159999847412109,-0.27900001406669617 7.159999847412109,-0.27900001406669617 C7.159999847412109,-0.27900001406669617 7.159999847412109,-10.357000350952148 7.159999847412109,-10.357000350952148 C7.159999847412109,-10.357000350952148 0,-11.98900032043457 0,-11.98900032043457z"></path></g><g opacity="1" transform="matrix(1,0,0,1,225.83099365234375,154.1020050048828)"><path fill="rgb(120,93,135)" fill-opacity="1" d=" M7.242000102996826,-8.177000045776367 C7.242000102996826,-8.177000045776367 -7.077000141143799,-8.177000045776367 -7.077000141143799,-8.177000045776367 C-7.077000141143799,-8.177000045776367 -18.951000213623047,8.178000450134277 -18.951000213623047,8.178000450134277 C-18.951000213623047,8.178000450134277 -7.077000141143799,8.178000450134277 -7.077000141143799,8.178000450134277 C-7.077000141143799,8.178000450134277 7.242000102996826,8.178000450134277 7.242000102996826,8.178000450134277 C7.242000102996826,8.178000450134277 18.95199966430664,8.178000450134277 18.95199966430664,8.178000450134277 C18.95199966430664,8.178000450134277 7.242000102996826,-8.177000045776367 7.242000102996826,-8.177000045776367z"></path></g><g opacity="1" transform="matrix(1,0,0,1,164.69200134277344,136.16600036621094)"><path fill="rgb(115,77,95)" fill-opacity="1" d=" M0,-11.98900032043457 C0,-11.98900032043457 -7.159999847412109,-10.357000350952148 -7.159999847412109,-10.357000350952148 C-7.159999847412109,-10.357000350952148 -7.159999847412109,-0.27900001406669617 -7.159999847412109,-0.27900001406669617 C-7.159999847412109,-0.27900001406669617 -7.159999847412109,9.758000373840332 -7.159999847412109,9.758000373840332 C-7.159999847412109,9.758000373840332 0.004999999888241291,11.98799991607666 0.004999999888241291,11.98799991607666 C0.004999999888241291,11.98799991607666 7.159999847412109,9.758000373840332 7.159999847412109,9.758000373840332 C7.159999847412109,9.758000373840332 7.159999847412109,-0.27900001406669617 7.159999847412109,-0.27900001406669617 C7.159999847412109,-0.27900001406669617 7.159999847412109,-10.357000350952148 7.159999847412109,-10.357000350952148 C7.159999847412109,-10.357000350952148 0,-11.98900032043457 0,-11.98900032043457z"></path></g><g opacity="1" transform="matrix(1,0,0,1,164.60899353027344,154.1020050048828)"><path fill="rgb(120,93,135)" fill-opacity="1" d=" M7.243000030517578,-8.177000045776367 C7.243000030517578,-8.177000045776367 -7.077000141143799,-8.177000045776367 -7.077000141143799,-8.177000045776367 C-7.077000141143799,-8.177000045776367 -18.951000213623047,8.178000450134277 -18.951000213623047,8.178000450134277 C-18.951000213623047,8.178000450134277 -7.077000141143799,8.178000450134277 -7.077000141143799,8.178000450134277 C-7.077000141143799,8.178000450134277 7.243000030517578,8.178000450134277 7.243000030517578,8.178000450134277 C7.243000030517578,8.178000450134277 18.951000213623047,8.178000450134277 18.951000213623047,8.178000450134277 C18.951000213623047,8.178000450134277 7.243000030517578,-8.177000045776367 7.243000030517578,-8.177000045776367z"></path></g><g opacity="1" transform="matrix(1,0,0,1,251.2689971923828,43.47600173950195)"><path fill="rgb(88,65,100)" fill-opacity="1" d=" M-9.27400016784668,-18.96500015258789 C-9.27400016784668,-18.96500015258789 -10.395999908447266,0.9670000076293945 -10.395999908447266,0.9670000076293945 C-10.395999908447266,0.9670000076293945 -9.27400016784668,18.097000122070312 -9.27400016784668,18.097000122070312 C-9.27400016784668,18.097000122070312 -0.0010000000474974513,18.96500015258789 -0.0010000000474974513,18.96500015258789 C-0.0010000000474974513,18.96500015258789 10.395999908447266,18.097000122070312 10.395999908447266,18.097000122070312 C10.395999908447266,18.097000122070312 10.395999908447266,6.432000160217285 10.395999908447266,6.432000160217285 C10.395999908447266,6.432000160217285 10.395999908447266,-5.23199987411499 10.395999908447266,-5.23199987411499 C10.395999908447266,-5.23199987411499 -9.27400016784668,-18.96500015258789 -9.27400016784668,-18.96500015258789z"></path></g><g opacity="1" transform="matrix(1,0,0,1,251.2689971923828,71.40899658203125)"><path fill="rgb(120,93,135)" fill-opacity="1" d=" M0.5270000100135803,-9.835000038146973 C0.5270000100135803,-9.835000038146973 -9.274999618530273,-9.835000038146973 -9.274999618530273,-9.835000038146973 C-9.274999618530273,-9.835000038146973 -10.395999908447266,0.0010000000474974513 -10.395999908447266,0.0010000000474974513 C-10.395999908447266,0.0010000000474974513 -9.274999618530273,9.835000038146973 -9.274999618530273,9.835000038146973 C-9.274999618530273,9.835000038146973 10.395999908447266,9.835000038146973 10.395999908447266,9.835000038146973 C10.395999908447266,9.835000038146973 10.395999908447266,-9.835000038146973 10.395999908447266,-9.835000038146973 C10.395999908447266,-9.835000038146973 0.5270000100135803,-9.835000038146973 0.5270000100135803,-9.835000038146973z"></path></g><g opacity="1" transform="matrix(1,0,0,1,139.43099975585938,43.47600173950195)"><path fill="rgb(88,65,100)" fill-opacity="1" d=" M9.196999549865723,-18.96500015258789 C9.196999549865723,-18.96500015258789 -10.472999572753906,-5.23199987411499 -10.472999572753906,-5.23199987411499 C-10.472999572753906,-5.23199987411499 -10.472999572753906,6.432000160217285 -10.472999572753906,6.432000160217285 C-10.472999572753906,6.432000160217285 -10.472999572753906,18.097000122070312 -10.472999572753906,18.097000122070312 C-10.472999572753906,18.097000122070312 -0.07699999958276749,18.96500015258789 -0.07699999958276749,18.96500015258789 C-0.07699999958276749,18.96500015258789 9.196999549865723,18.097000122070312 9.196999549865723,18.097000122070312 C9.196999549865723,18.097000122070312 10.472999572753906,0.026000000536441803 10.472999572753906,0.026000000536441803 C10.472999572753906,0.026000000536441803 9.196999549865723,-18.96500015258789 9.196999549865723,-18.96500015258789z"></path></g><g opacity="1" transform="matrix(1,0,0,1,139.1219940185547,71.40899658203125)"><path fill="rgb(120,93,135)" fill-opacity="1" d=" M9.505999565124512,-9.835000038146973 C9.505999565124512,-9.835000038146973 -0.29499998688697815,-9.835000038146973 -0.29499998688697815,-9.835000038146973 C-0.29499998688697815,-9.835000038146973 -10.163999557495117,-9.835000038146973 -10.163999557495117,-9.835000038146973 C-10.163999557495117,-9.835000038146973 -10.163999557495117,9.835000038146973 -10.163999557495117,9.835000038146973 C-10.163999557495117,9.835000038146973 9.505999565124512,9.835000038146973 9.505999565124512,9.835000038146973 C9.505999565124512,9.835000038146973 10.163999557495117,-0.21899999678134918 10.163999557495117,-0.21899999678134918 C10.163999557495117,-0.21899999678134918 9.505999565124512,-9.835000038146973 9.505999565124512,-9.835000038146973z"></path></g><g opacity="1" transform="matrix(1,0,0,1,225.91700744628906,120.06900024414062)"><path fill="rgb(88,65,100)" fill-opacity="1" d=" M-16.07699966430664,5.739999771118164 C-16.07699966430664,5.739999771118164 16.07699966430664,5.739999771118164 16.07699966430664,5.739999771118164 C16.07699966430664,5.739999771118164 16.07699966430664,-4.558000087738037 16.07699966430664,-4.558000087738037 C16.07699966430664,-4.558000087738037 -0.004999999888241291,-5.739999771118164 -0.004999999888241291,-5.739999771118164 C-0.004999999888241291,-5.739999771118164 -16.07699966430664,-4.558000087738037 -16.07699966430664,-4.558000087738037 C-16.07699966430664,-4.558000087738037 -16.07699966430664,5.739999771118164 -16.07699966430664,5.739999771118164z"></path></g><g opacity="1" transform="matrix(1,0,0,1,164.69500732421875,120.06900024414062)"><path fill="rgb(88,65,100)" fill-opacity="1" d=" M-16.076000213623047,5.739999771118164 C-16.076000213623047,5.739999771118164 16.07699966430664,5.739999771118164 16.07699966430664,5.739999771118164 C16.07699966430664,5.739999771118164 16.07699966430664,-4.558000087738037 16.07699966430664,-4.558000087738037 C16.07699966430664,-4.558000087738037 -0.003000000026077032,-5.739999771118164 -0.003000000026077032,-5.739999771118164 C-0.003000000026077032,-5.739999771118164 -16.076000213623047,-4.558000087738037 -16.076000213623047,-4.558000087738037 C-16.076000213623047,-4.558000087738037 -16.076000213623047,5.739999771118164 -16.076000213623047,5.739999771118164z"></path></g><g opacity="1" transform="matrix(1,0,0,1,172.21800231933594,57.880001068115234)"><path fill="rgb(196,196,196)" fill-opacity="1" d=" M23.072999954223633,-13.437000274658203 C23.072999954223633,-13.437000274658203 23.072999954223633,-57.4379997253418 23.072999954223633,-57.4379997253418 C23.072999954223633,-57.4379997253418 -0.25699999928474426,-57.4379997253418 -0.25699999928474426,-57.4379997253418 C-0.25699999928474426,-57.4379997253418 -0.26100000739097595,-57.630001068115234 -0.26100000739097595,-57.630001068115234 C-0.26100000739097595,-57.630001068115234 -20.12299919128418,-53.35300064086914 -20.12299919128418,-53.35300064086914 C-20.12299919128418,-53.35300064086914 -23.59000015258789,-33.36899948120117 -23.59000015258789,-33.36899948120117 C-23.59000015258789,-33.36899948120117 -23.59000015258789,3.693000078201294 -23.59000015258789,3.693000078201294 C-23.59000015258789,3.693000078201294 -22.31399917602539,14.708999633789062 -22.31399917602539,14.708999633789062 C-22.31399917602539,14.708999633789062 -23.59000015258789,23.364999771118164 -23.59000015258789,23.364999771118164 C-23.59000015258789,23.364999771118164 -23.59000015258789,57.630001068115234 -23.59000015258789,57.630001068115234 C-23.59000015258789,57.630001068115234 -0.26100000739097595,57.630001068115234 -0.26100000739097595,57.630001068115234 C-0.26100000739097595,57.630001068115234 -0.25699999928474426,57.41600036621094 -0.25699999928474426,57.41600036621094 C-0.25699999928474426,57.41600036621094 -0.25699999928474426,57.630001068115234 -0.25699999928474426,57.630001068115234 C-0.25699999928474426,57.630001068115234 23.072999954223633,57.630001068115234 23.072999954223633,57.630001068115234 C23.072999954223633,57.630001068115234 23.59000015258789,18.718000411987305 23.59000015258789,18.718000411987305 C23.59000015258789,18.718000411987305 23.072999954223633,-13.437000274658203 23.072999954223633,-13.437000274658203z"></path></g><g opacity="1" transform="matrix(1,0,0,1,218.66700744628906,57.880001068115234)"><path fill="rgb(157,160,161)" fill-opacity="1" d=" M23.32699966430664,-33.36899948120117 C23.32699966430664,-33.36899948120117 20.71500015258789,-53.35300064086914 20.71500015258789,-53.35300064086914 C20.71500015258789,-53.35300064086914 0,-57.630001068115234 0,-57.630001068115234 C0,-57.630001068115234 0,-57.48899841308594 0,-57.48899841308594 C0,-57.48899841308594 -23.32699966430664,-57.48899841308594 -23.32699966430664,-57.48899841308594 C-23.32699966430664,-57.48899841308594 -23.32699966430664,57.630001068115234 -23.32699966430664,57.630001068115234 C-23.32699966430664,57.630001068115234 0,57.630001068115234 0,57.630001068115234 C0,57.630001068115234 23.32699966430664,57.630001068115234 23.32699966430664,57.630001068115234 C23.32699966430664,57.630001068115234 23.32699966430664,23.36400032043457 23.32699966430664,23.36400032043457 C23.32699966430664,23.36400032043457 22.319000244140625,14.708999633789062 22.319000244140625,14.708999633789062 C22.319000244140625,14.708999633789062 23.32699966430664,3.693000078201294 23.32699966430664,3.693000078201294 C23.32699966430664,3.693000078201294 23.32699966430664,-33.36899948120117 23.32699966430664,-33.36899948120117z"></path></g><g opacity="1" transform="matrix(1,0,0,1,195.31100463867188,20.44499969482422)"><path fill="rgb(120,93,135)" fill-opacity="1" d=" M46.68299865722656,4.065999984741211 C46.68299865722656,4.065999984741211 -46.68299865722656,4.065999984741211 -46.68299865722656,4.065999984741211 C-46.68299865722656,4.065999984741211 -46.68299865722656,-2.7639999389648438 -46.68299865722656,-2.7639999389648438 C-46.68299865722656,-2.7639999389648438 2.3550000190734863,-4.065999984741211 2.3550000190734863,-4.065999984741211 C2.3550000190734863,-4.065999984741211 46.68299865722656,-2.7639999389648438 46.68299865722656,-2.7639999389648438 C46.68299865722656,-2.7639999389648438 46.68299865722656,4.065999984741211 46.68299865722656,4.065999984741211z"></path></g><g opacity="1" transform="matrix(1,0,0,1,195.31100463867188,8.96500015258789)"><path fill="rgb(144,117,159)" fill-opacity="1" d=" M46.68299865722656,8.71500015258789 C46.68299865722656,8.71500015258789 0.9599999785423279,8.71500015258789 0.9599999785423279,8.71500015258789 C0.9599999785423279,8.71500015258789 -46.68299865722656,8.71500015258789 -46.68299865722656,8.71500015258789 C-46.68299865722656,8.71500015258789 -46.68299865722656,-8.71500015258789 -46.68299865722656,-8.71500015258789 C-46.68299865722656,-8.71500015258789 46.68299865722656,-8.71500015258789 46.68299865722656,-8.71500015258789 C46.68299865722656,-8.71500015258789 46.68299865722656,8.71500015258789 46.68299865722656,8.71500015258789z"></path></g><g opacity="0.2" transform="matrix(1,0,0,1,166.4239959716797,85.89700317382812)"><path fill="rgb(43,43,43)" fill-opacity="1" d=" M5.645999908447266,5.511000156402588 C5.645999908447266,5.511000156402588 -17.79599952697754,24.340999603271484 -17.79599952697754,24.340999603271484 C-17.79599952697754,24.340999603271484 -17.79599952697754,-4.6539998054504395 -17.79599952697754,-4.6539998054504395 C-17.79599952697754,-4.6539998054504395 5.427999973297119,-24.343000411987305 5.427999973297119,-24.343000411987305 C5.427999973297119,-24.343000411987305 17.795000076293945,-24.322999954223633 17.795000076293945,-24.322999954223633 C17.795000076293945,-24.322999954223633 5.645999908447266,-14.48799991607666 5.645999908447266,-14.48799991607666 C5.645999908447266,-14.48799991607666 0.4819999933242798,-3.941999912261963 0.4819999933242798,-3.941999912261963 C0.4819999933242798,-3.941999912261963 5.645999908447266,5.511000156402588 5.645999908447266,5.511000156402588z"></path></g><g opacity="0.2" transform="matrix(1,0,0,1,224.1999969482422,85.89700317382812)"><path fill="rgb(43,43,43)" fill-opacity="1" d=" M-5.644999980926514,5.511000156402588 C-5.644999980926514,5.511000156402588 17.79400062561035,24.340999603271484 17.79400062561035,24.340999603271484 C17.79400062561035,24.340999603271484 17.79400062561035,-4.6539998054504395 17.79400062561035,-4.6539998054504395 C17.79400062561035,-4.6539998054504395 -5.427000045776367,-24.343000411987305 -5.427000045776367,-24.343000411987305 C-5.427000045776367,-24.343000411987305 -17.79400062561035,-24.322999954223633 -17.79400062561035,-24.322999954223633 C-17.79400062561035,-24.322999954223633 -5.644999980926514,-14.48799991607666 -5.644999980926514,-14.48799991607666 C-5.644999980926514,-14.48799991607666 -0.4819999933242798,-3.941999912261963 -0.4819999933242798,-3.941999912261963 C-0.4819999933242798,-3.941999912261963 -5.644999980926514,5.511000156402588 -5.644999980926514,5.511000156402588z"></path></g><g opacity="1" transform="matrix(1,0,0,1,230.33099365234375,71.19100189208984)"><path fill="rgb(88,65,100)" fill-opacity="1" d=" M-0.0010000000474974513,-9.618000030517578 C-0.0010000000474974513,-9.618000030517578 -5.493000030517578,-10.763999938964844 -5.493000030517578,-10.763999938964844 C-5.493000030517578,-10.763999938964844 -11.663000106811523,-9.618000030517578 -11.663000106811523,-9.618000030517578 C-11.663000106811523,-9.618000030517578 -11.663000106811523,10.052000045776367 -11.663000106811523,10.052000045776367 C-11.663000106811523,10.052000045776367 -6.638999938964844,10.763999938964844 -6.638999938964844,10.763999938964844 C-6.638999938964844,10.763999938964844 -0.0010000000474974513,10.052000045776367 -0.0010000000474974513,10.052000045776367 C-0.0010000000474974513,10.052000045776367 11.663000106811523,10.052000045776367 11.663000106811523,10.052000045776367 C11.663000106811523,10.052000045776367 11.663000106811523,-0.26600000262260437 11.663000106811523,-0.26600000262260437 C11.663000106811523,-0.26600000262260437 11.663000106811523,-9.618000030517578 11.663000106811523,-9.618000030517578 C11.663000106811523,-9.618000030517578 -0.0010000000474974513,-9.618000030517578 -0.0010000000474974513,-9.618000030517578z"></path></g><g opacity="1" transform="matrix(1,0,0,1,218.36700439453125,56.492000579833984)"><path fill="rgb(88,65,100)" fill-opacity="1" d=" M11.961999893188477,5.080999851226807 C11.961999893188477,5.080999851226807 0.18700000643730164,-5.081999778747559 0.18700000643730164,-5.081999778747559 C0.18700000643730164,-5.081999778747559 -11.961999893188477,5.081999778747559 -11.961999893188477,5.081999778747559 C-11.961999893188477,5.081999778747559 11.961999893188477,5.080999851226807 11.961999893188477,5.080999851226807z"></path></g><g opacity="1" transform="matrix(1,0,0,1,218.36700439453125,86.3270034790039)"><path fill="rgb(88,65,100)" fill-opacity="1" d=" M11.961999893188477,-5.080999851226807 C11.961999893188477,-5.080999851226807 0.18700000643730164,5.081999778747559 0.18700000643730164,5.081999778747559 C0.18700000643730164,5.081999778747559 -11.961999893188477,-5.081999778747559 -11.961999893188477,-5.081999778747559 C-11.961999893188477,-5.081999778747559 11.961999893188477,-5.080999851226807 11.961999893188477,-5.080999851226807z"></path></g><g opacity="1" transform="matrix(1,0,0,1,160.29200744628906,71.19100189208984)"><path fill="rgb(88,65,100)" fill-opacity="1" d=" M5.49399995803833,-10.763999938964844 C5.49399995803833,-10.763999938964844 0.0010000000474974513,-9.618000030517578 0.0010000000474974513,-9.618000030517578 C0.0010000000474974513,-9.618000030517578 -11.663999557495117,-9.618000030517578 -11.663999557495117,-9.618000030517578 C-11.663999557495117,-9.618000030517578 -11.663999557495117,-0.26600000262260437 -11.663999557495117,-0.26600000262260437 C-11.663999557495117,-0.26600000262260437 -11.663999557495117,10.053000450134277 -11.663999557495117,10.053000450134277 C-11.663999557495117,10.053000450134277 0.0010000000474974513,10.053000450134277 0.0010000000474974513,10.053000450134277 C0.0010000000474974513,10.053000450134277 6.638999938964844,10.765000343322754 6.638999938964844,10.765000343322754 C6.638999938964844,10.765000343322754 11.663999557495117,10.053000450134277 11.663999557495117,10.053000450134277 C11.663999557495117,10.053000450134277 11.663999557495117,-9.618000030517578 11.663999557495117,-9.618000030517578 C11.663999557495117,-9.618000030517578 5.49399995803833,-10.763999938964844 5.49399995803833,-10.763999938964844z"></path></g><g opacity="1" transform="matrix(1,0,0,1,172.25599670410156,56.492000579833984)"><path fill="rgb(88,65,100)" fill-opacity="1" d=" M-11.963000297546387,5.080999851226807 C-11.963000297546387,5.080999851226807 -0.1860000044107437,-5.081999778747559 -0.1860000044107437,-5.081999778747559 C-0.1860000044107437,-5.081999778747559 11.963000297546387,5.081999778747559 11.963000297546387,5.081999778747559 C11.963000297546387,5.081999778747559 -11.963000297546387,5.080999851226807 -11.963000297546387,5.080999851226807z"></path></g><g opacity="1" transform="matrix(1,0,0,1,172.25599670410156,86.3270034790039)"><path fill="rgb(88,65,100)" fill-opacity="1" d=" M-11.963000297546387,-5.080999851226807 C-11.963000297546387,-5.080999851226807 -0.1860000044107437,5.081999778747559 -0.1860000044107437,5.081999778747559 C-0.1860000044107437,5.081999778747559 11.963000297546387,-5.081999778747559 11.963000297546387,-5.081999778747559 C11.963000297546387,-5.081999778747559 -11.963000297546387,-5.080999851226807 -11.963000297546387,-5.080999851226807z"></path></g></g><g transform="matrix(1,0,0,1,281.6619873046875,153.4929962158203)" opacity="1" style="display: block;"><g opacity="1" transform="matrix(1,0,0,1,55.52399826049805,103.18599700927734)"><path fill="rgb(120,93,135)" fill-opacity="1" d=" M5.534999847412109,7.739999771118164 C5.534999847412109,7.739999771118164 8.70300006866455,3.8480000495910645 8.70300006866455,3.8480000495910645 C8.70300006866455,3.8480000495910645 -5.533999919891357,-7.739999771118164 -5.533999919891357,-7.739999771118164 C-5.533999919891357,-7.739999771118164 -8.70300006866455,-3.8480000495910645 -8.70300006866455,-3.8480000495910645 C-8.70300006866455,-3.8480000495910645 5.534999847412109,7.739999771118164 5.534999847412109,7.739999771118164z"></path></g><g opacity="1" transform="matrix(1,0,0,1,64.67400360107422,110.63300323486328)"><path fill="rgb(144,117,159)" fill-opacity="1" d=" M-6.870999813079834,4.291999816894531 C-6.870999813079834,4.291999816894531 2.809000015258789,-7.599999904632568 2.809000015258789,-7.599999904632568 C2.809000015258789,-7.599999904632568 6.870999813079834,-4.291999816894531 6.870999813079834,-4.291999816894531 C6.870999813079834,-4.291999816894531 -2.809999942779541,7.599999904632568 -2.809999942779541,7.599999904632568 C-2.809999942779541,7.599999904632568 -6.870999813079834,4.291999816894531 -6.870999813079834,4.291999816894531z"></path></g><g opacity="1" transform="matrix(1,0,0,1,68.93199920654297,38.24700164794922)"><path fill="rgb(196,196,196)" fill-opacity="1" d=" M-1.850000023841858,-31.652999877929688 C-1.850000023841858,-31.652999877929688 31.368999481201172,-4.61299991607666 31.368999481201172,-4.61299991607666 C31.368999481201172,-4.61299991607666 1.850000023841858,31.652999877929688 1.850000023841858,31.652999877929688 C1.850000023841858,31.652999877929688 -14.815999984741211,21.138999938964844 -14.815999984741211,21.138999938964844 C-14.815999984741211,21.138999938964844 -31.368999481201172,4.61299991607666 -31.368999481201172,4.61299991607666 C-31.368999481201172,4.61299991607666 -18.395999908447266,-13.446999549865723 -18.395999908447266,-13.446999549865723 C-18.395999908447266,-13.446999549865723 -1.850000023841858,-31.652999877929688 -1.850000023841858,-31.652999877929688z"></path></g><g opacity="1" transform="matrix(1,0,0,1,54.051998138427734,43.551998138427734)"><path fill="rgb(120,93,135)" fill-opacity="1" d=" M3.0959999561309814,-10.213000297546387 C3.0959999561309814,-10.213000297546387 -3.13700008392334,-2.555000066757202 -3.13700008392334,-2.555000066757202 C-3.13700008392334,-2.555000066757202 -9.371999740600586,5.103000164031982 -9.371999740600586,5.103000164031982 C-9.371999740600586,5.103000164031982 -7.080999851226807,8.701000213623047 -7.080999851226807,8.701000213623047 C-7.080999851226807,8.701000213623047 -3.0940001010894775,10.213000297546387 -3.0940001010894775,10.213000297546387 C-3.0940001010894775,10.213000297546387 3.1410000324249268,2.555000066757202 3.1410000324249268,2.555000066757202 C3.1410000324249268,2.555000066757202 9.371999740600586,-5.104000091552734 9.371999740600586,-5.104000091552734 C9.371999740600586,-5.104000091552734 3.0959999561309814,-10.213000297546387 3.0959999561309814,-10.213000297546387z"></path></g><g opacity="1" transform="matrix(1,0,0,1,39.41299819946289,74.51300048828125)"><path fill="rgb(157,160,161)" fill-opacity="1" d=" M-31.368999481201172,4.611000061035156 C-31.368999481201172,4.611000061035156 1.8509999513626099,31.652999877929688 1.8509999513626099,31.652999877929688 C1.8509999513626099,31.652999877929688 31.368999481201172,-4.61299991607666 31.368999481201172,-4.61299991607666 C31.368999481201172,-4.61299991607666 -1.850000023841858,-31.652999877929688 -1.850000023841858,-31.652999877929688 C-1.850000023841858,-31.652999877929688 -18.0049991607666,-16.10700035095215 -18.0049991607666,-16.10700035095215 C-18.0049991607666,-16.10700035095215 -31.368999481201172,4.611000061035156 -31.368999481201172,4.611000061035156z"></path></g><g opacity="1" transform="matrix(1,0,0,1,41.58700180053711,58.867000579833984)"><path fill="rgb(144,117,159)" fill-opacity="1" d=" M3.0940001010894775,-10.213000297546387 C3.0940001010894775,-10.213000297546387 -3.1389999389648438,-2.555000066757202 -3.1389999389648438,-2.555000066757202 C-3.1389999389648438,-2.555000066757202 -9.371999740600586,5.103000164031982 -9.371999740600586,5.103000164031982 C-9.371999740600586,5.103000164031982 -3.0940001010894775,10.213000297546387 -3.0940001010894775,10.213000297546387 C-3.0940001010894775,10.213000297546387 3.1389999389648438,2.553999900817871 3.1389999389648438,2.553999900817871 C3.1389999389648438,2.553999900817871 9.371999740600586,-5.103000164031982 9.371999740600586,-5.103000164031982 C9.371999740600586,-5.103000164031982 3.0940001010894775,-10.213000297546387 3.0940001010894775,-10.213000297546387z"></path></g><g opacity="1" transform="matrix(1,0,0,1,55.80500030517578,12.48900032043457)"><path fill="rgb(115,77,95)" fill-opacity="1" d=" M-11.277999877929688,5.89300012588501 C-11.277999877929688,5.89300012588501 3.4809999465942383,-12.23799991607666 3.4809999465942383,-12.23799991607666 C3.4809999465942383,-12.23799991607666 11.277999877929688,-5.89300012588501 11.277999877929688,-5.89300012588501 C11.277999877929688,-5.89300012588501 -3.4820001125335693,12.23799991607666 -3.4820001125335693,12.23799991607666 C-3.4820001125335693,12.23799991607666 -8.126999855041504,9.984000205993652 -8.126999855041504,9.984000205993652 C-8.126999855041504,9.984000205993652 -11.277999877929688,5.89300012588501 -11.277999877929688,5.89300012588501z"></path></g><g opacity="1" transform="matrix(1,0,0,1,41.04499816894531,30.621000289916992)"><path fill="rgb(115,77,95)" fill-opacity="1" d=" M-11.277999877929688,5.894000053405762 C-11.277999877929688,5.894000053405762 3.4820001125335693,-12.23900032043457 3.4820001125335693,-12.23900032043457 C3.4820001125335693,-12.23900032043457 11.277999877929688,-5.894999980926514 11.277999877929688,-5.894999980926514 C11.277999877929688,-5.894999980926514 -3.4820001125335693,12.23900032043457 -3.4820001125335693,12.23900032043457 C-3.4820001125335693,12.23900032043457 -7.454999923706055,10.739999771118164 -7.454999923706055,10.739999771118164 C-7.454999923706055,10.739999771118164 -11.277999877929688,5.894000053405762 -11.277999877929688,5.894000053405762z"></path></g><g opacity="1" transform="matrix(1,0,0,1,26.285999298095703,48.75400161743164)"><path fill="rgb(149,98,123)" fill-opacity="1" d=" M-11.277999877929688,5.894000053405762 C-11.277999877929688,5.894000053405762 3.4809999465942383,-12.23900032043457 3.4809999465942383,-12.23900032043457 C3.4809999465942383,-12.23900032043457 11.277999877929688,-5.894000053405762 11.277999877929688,-5.894000053405762 C11.277999877929688,-5.894000053405762 -3.4830000400543213,12.23900032043457 -3.4830000400543213,12.23900032043457 C-3.4830000400543213,12.23900032043457 -7.36899995803833,10.82699966430664 -7.36899995803833,10.82699966430664 C-7.36899995803833,10.82699966430664 -11.277999877929688,5.894000053405762 -11.277999877929688,5.894000053405762z"></path></g><g opacity="1" transform="matrix(1,0,0,1,11.526000022888184,66.88600158691406)"><path fill="rgb(149,98,123)" fill-opacity="1" d=" M-11.276000022888184,5.894000053405762 C-11.276000022888184,5.894000053405762 3.4820001125335693,-12.23799991607666 3.4820001125335693,-12.23799991607666 C3.4820001125335693,-12.23799991607666 11.276000022888184,-5.89300012588501 11.276000022888184,-5.89300012588501 C11.276000022888184,-5.89300012588501 -3.4830000400543213,12.23799991607666 -3.4830000400543213,12.23799991607666 C-3.4830000400543213,12.23799991607666 -11.276000022888184,5.894000053405762 -11.276000022888184,5.894000053405762z"></path></g><g opacity="1" transform="matrix(1,0,0,1,85.54199981689453,51.768001556396484)"><path fill="rgb(157,160,161)" fill-opacity="1" d=" M-14.758999824523926,18.132999420166016 C-14.758999824523926,18.132999420166016 -0.7229999899864197,16.82699966430664 -0.7229999899864197,16.82699966430664 C-0.7229999899864197,16.82699966430664 14.291999816894531,11.520999908447266 14.291999816894531,11.520999908447266 C14.291999816894531,11.520999908447266 14.758999824523926,-18.132999420166016 14.758999824523926,-18.132999420166016 C14.758999824523926,-18.132999420166016 -14.758999824523926,18.132999420166016 -14.758999824523926,18.132999420166016z"></path></g><g opacity="1" transform="matrix(1,0,0,1,57.064998626708984,88.03299713134766)"><path fill="rgb(133,133,133)" fill-opacity="1" d=" M13.718000411987305,-18.132999420166016 C13.718000411987305,-18.132999420166016 15.800999641418457,-4.756999969482422 15.800999641418457,-4.756999969482422 C15.800999641418457,-4.756999969482422 13.194999694824219,11.58899974822998 13.194999694824219,11.58899974822998 C13.194999694824219,11.58899974822998 -15.800999641418457,18.132999420166016 -15.800999641418457,18.132999420166016 C-15.800999641418457,18.132999420166016 13.718000411987305,-18.132999420166016 13.718000411987305,-18.132999420166016z"></path></g><g opacity="1" transform="matrix(1,0,0,1,85.0459976196289,81.45500183105469)"><path fill="rgb(115,77,95)" fill-opacity="1" d=" M14.786999702453613,-18.16699981689453 C14.786999702453613,-18.16699981689453 -14.786999702453613,18.16699981689453 -14.786999702453613,18.16699981689453 C-14.786999702453613,18.16699981689453 -14.263999938964844,-11.553999900817871 -14.263999938964844,-11.553999900817871 C-14.263999938964844,-11.553999900817871 14.786999702453613,-18.16699981689453 14.786999702453613,-18.16699981689453z"></path></g><g opacity="1" transform="matrix(1,0,0,1,75.9209976196289,39.09400177001953)"><path fill="rgb(88,65,100)" fill-opacity="1" d=" M-4.663000106811523,5.730000019073486 C-4.663000106811523,5.730000019073486 -5.729000091552734,-4.664000034332275 -5.729000091552734,-4.664000034332275 C-5.729000091552734,-4.664000034332275 4.664999961853027,-5.730000019073486 4.664999961853027,-5.730000019073486 C4.664999961853027,-5.730000019073486 5.729000091552734,4.663000106811523 5.729000091552734,4.663000106811523 C5.729000091552734,4.663000106811523 -4.663000106811523,5.730000019073486 -4.663000106811523,5.730000019073486z"></path></g><g opacity="1" transform="matrix(1,0,0,1,41.6609992980957,81.18499755859375)"><path fill="rgb(88,65,100)" fill-opacity="1" d=" M4.663000106811523,-5.730000019073486 C4.663000106811523,-5.730000019073486 -5.729000091552734,-4.663000106811523 -5.729000091552734,-4.663000106811523 C-5.729000091552734,-4.663000106811523 -4.663000106811523,5.730000019073486 -4.663000106811523,5.730000019073486 C-4.663000106811523,5.730000019073486 5.729000091552734,4.664000034332275 5.729000091552734,4.664000034332275 C5.729000091552734,4.664000034332275 4.663000106811523,-5.730000019073486 4.663000106811523,-5.730000019073486z"></path></g></g><g transform="matrix(0.9995222091674805,0.03091035783290863,-0.03091035783290863,0.9995222091674805,200.41297912597656,201.8345184326172)" opacity="1" style="display: none;"><g opacity="1" transform="matrix(1,0,0,1,0,0)"><path stroke-linecap="butt" stroke-linejoin="miter" fill-opacity="0" stroke-miterlimit="4" stroke="rgb(0,0,0)" stroke-opacity="1" stroke-width="4" d=" M1.5,-114.25 C1.5,-114.25 9.024999618530273,-106.5 9.024999618530273,-106.5"></path></g><g opacity="1" transform="matrix(1,0,0,1,0,0)"><path stroke-linecap="butt" stroke-linejoin="miter" fill-opacity="0" stroke-miterlimit="4" stroke="rgb(0,0,0)" stroke-opacity="1" stroke-width="4" d=" M27.760000228881836,-96.9800033569336 C27.760000228881836,-96.9800033569336 36.5,-94.25 36.5,-94.25"></path></g></g><g transform="matrix(0.9999995231628418,-0.00098569190595299,0.00098569190595299,0.9999995231628418,200.93797302246094,200.00033569335938)" opacity="1" style="display: none;"><g opacity="1" transform="matrix(1,0,0,1,0,0)"><path stroke-linecap="butt" stroke-linejoin="miter" fill-opacity="0" stroke-miterlimit="4" stroke="rgb(0,0,0)" stroke-opacity="1" stroke-width="4" d=" M1.5,-114.25 C1.5,-114.25 9.024999618530273,-106.5 9.024999618530273,-106.5"></path></g><g opacity="1" transform="matrix(1,0,0,1,0,0)"><path stroke-linecap="butt" stroke-linejoin="miter" fill-opacity="0" stroke-miterlimit="4" stroke="rgb(0,0,0)" stroke-opacity="1" stroke-width="4" d=" M27.760000228881836,-96.9800033569336 C27.760000228881836,-96.9800033569336 36.5,-94.25 36.5,-94.25"></path></g></g></g></svg>
